<svg width="182" height="27" viewBox="0 0 182 27" fill="none" xmlns="http://www.w3.org/2000/svg">
<path d="M13.4222 0C5.99773 0 0 6.03284 0 13.4556C0 20.8784 6.02684 26.9112 13.4222 26.9112C20.8175 26.9112 26.8445 20.8784 26.8445 13.4556C26.8445 6.03284 20.8466 0 13.4222 0ZM13.5387 22.8006C8.41442 22.8006 4.25091 18.6308 4.25091 13.4852C4.25091 8.33952 8.41442 4.16976 13.5387 4.16976C18.663 4.16976 22.8265 8.33952 22.8265 13.4852C22.8265 18.6308 18.663 22.8006 13.5387 22.8006Z" fill="#6429CD"/>
<path d="M61.2884 26.9991C68.7128 26.9991 74.7105 20.9663 74.7105 13.5435C74.7105 6.12074 68.6837 0.0878906 61.2884 0.0878906C53.8931 0.0878906 47.8662 6.12074 47.8662 13.5435C47.8662 20.9663 53.8639 26.9991 61.2884 26.9991ZM61.2011 4.1985C66.3254 4.1985 70.4889 8.36827 70.4889 13.5139C70.4889 18.6596 66.3254 22.8293 61.2011 22.8293C56.0768 22.8293 51.9133 18.6596 51.9133 13.5139C51.9133 8.36827 56.0768 4.1985 61.2011 4.1985Z" fill="#6429CD"/>
<path d="M168.578 26.9991C176.002 26.9991 182 20.9663 182 13.5435C182 6.12074 175.973 0.0878906 168.578 0.0878906C161.182 0.0878906 155.155 6.12074 155.155 13.5435C155.155 20.9663 161.153 26.9991 168.578 26.9991ZM168.49 4.1985C173.614 4.1985 177.778 8.36827 177.778 13.5139C177.778 18.6596 173.614 22.8293 168.49 22.8293C163.366 22.8293 159.202 18.6596 159.202 13.5139C159.202 8.36827 163.366 4.1985 168.49 4.1985Z" fill="#6429CD"/>
<path d="M94.3626 26.9405C101.787 26.9405 107.785 20.9077 107.785 13.4849C107.785 6.06214 101.758 0.0292969 94.3626 0.0292969C86.9673 0.0292969 80.9404 6.06214 80.9404 13.4849C80.9404 20.9077 86.9382 26.9405 94.3626 26.9405ZM94.2753 4.13991C99.3996 4.13991 103.563 8.30967 103.563 13.4553C103.563 18.601 99.3996 22.7708 94.2753 22.7708C89.151 22.7708 84.9875 18.601 84.9875 13.4553C84.9875 8.30967 89.151 4.13991 94.2753 4.13991Z" fill="#6429CD"/>
</svg>
